<?xml version="1.0" encoding="UTF-8"?>
<svg width="25px" height="25px" viewBox="0 0 25 25" version="1.1" xmlns="http://www.w3.org/2000/svg" xmlns:xlink="http://www.w3.org/1999/xlink">
    <!-- Generator: Sketch 64 (93537) - https://sketch.com -->
    <title>Token / aGUSD</title>
    <desc>Created with Sketch.</desc>
    <defs>
        <rect id="path-1" x="0" y="0" width="25" height="25"></rect>
        <linearGradient x1="84.3%" y1="13.4998961%" x2="20.6%" y2="88.6001099%" id="linearGradient-3">
            <stop stop-color="#B6509E" offset="0%"></stop>
            <stop stop-color="#2EBAC6" offset="100%"></stop>
        </linearGradient>
    </defs>
    <g id="Token-/-aGUSD" stroke="none" stroke-width="1" fill="none" fill-rule="evenodd">
        <g id="aDAI">
            <mask id="mask-2" fill="white">
                <use xlink:href="#path-1"></use>
            </mask>
            <g id="Rectangle"></g>
            <g id="c" mask="url(#mask-2)" fill="url(#linearGradient-3)" fill-rule="nonzero">
                <g id="Group">
                    <path d="M12.5,25.0000004 C11.6537592,25.0000004 10.8096504,24.9151541 9.98046875,24.7460938 C8.3815383,24.4185769 6.8627424,23.779435 5.51074219,22.8651367 C3.50103816,21.5085366 1.92789652,19.5982083 0.981933594,17.365625 C0.662434176,16.6095338 0.418569251,15.8236705 0.25390625,15.0195313 C-0.0846941269,13.3571381 -0.0846941269,11.6435454 0.25390625,9.98115234 C0.581395719,8.38222981 1.22050411,6.86343484 2.13476563,5.51142578 C3.49140087,3.50160699 5.40179703,1.92836351 7.63447266,0.982324219 C8.39051231,0.662681189 9.17634461,0.418684888 9.98046875,0.25390625 C11.64286,-0.0847128424 13.3564564,-0.0847128424 15.0188477,0.25390625 C16.6177717,0.581390825 18.1365676,1.22049961 19.4885742,2.13476563 C21.4982891,3.49139614 23.0714311,5.40175874 24.0173828,7.634375 C24.3371243,8.39043826 24.5812186,9.17630305 24.7460938,9.98046875 C25.0847021,11.642861 25.0847021,13.3564554 24.7460938,15.0188477 C24.4186288,16.6177778 23.7795184,18.1365774 22.8652344,19.4885742 C21.5085411,21.498232 19.5981973,23.0713585 17.365625,24.0173828 C16.6095492,24.33709 15.8236879,24.5811833 15.0195312,24.7460938 C14.1903495,24.9151534 13.3462408,25.0000004 12.5,25.0000004 Z M12.5,1.33915988 C11.7445141,1.33915988 10.9909344,1.41496224 10.2506836,1.56591797 C8.82302892,1.85829405 7.46692404,2.4289485 6.25976563,3.2453125 C4.46562338,4.45673649 3.06125921,6.16242836 2.21679687,8.15576172 C1.93141851,8.83089366 1.71359154,9.53262428 1.56650391,10.2506836 C1.26417735,11.7349568 1.26417735,13.2649455 1.56650391,14.7492188 C1.85898893,16.1768586 2.42974247,17.5329292 3.24619141,18.7400391 C4.45751127,20.5344005 6.16317106,21.9390037 8.15654297,22.7836914 C8.83172086,23.0690125 9.53348138,23.2868058 10.2515625,23.4338867 C11.7358306,23.7362641 13.2658296,23.7362641 14.7500977,23.4338867 C16.1777762,23.1415266 17.5338704,22.5707631 18.740918,21.7541992 C20.5347343,20.5428073 21.9388459,18.8373033 22.7832031,16.8442383 C23.068563,16.1690659 23.2863893,15.4673048 23.4334961,14.7492188 C23.7358227,13.2649455 23.7358227,11.7349568 23.4334961,10.2506836 C23.140994,8.82307927 22.5702413,7.46704388 21.7538086,6.25996094 C20.542661,4.46586653 18.8372832,3.06144173 16.8442383,2.21679688 C16.1690661,1.93143644 15.4673049,1.71361013 14.7492187,1.56650391 C14.0090165,1.41539072 13.2554697,1.33915988 12.5,1.33915988 L12.5,1.33915988 Z" id="Shape"></path>
                </g>
            </g>
        </g>
        <g id="gemini-dollar-gusd-logo" transform="translate(3.000000, 3.000000)" fill-rule="nonzero">
            <circle id="Oval" fill="#00DCFA" cx="9.5" cy="9.5" r="9.5"></circle>
            <path d="M11.4960909,3 C9.20927273,3 7.26695455,4.75854545 7.02290909,7.02231818 C4.75795455,7.26695455 3,9.20927273 3,11.4955 C3.00130378,13.9824957 5.01691358,15.99837 7.50390909,16 C9.79072727,16 11.7407273,14.2414545 11.9770909,11.9776818 C14.2414545,11.7330455 16,9.79072727 16,7.5045 C15.9986962,5.01750429 13.9830864,3.00163005 11.4960909,3 Z M14.9446364,8.00854545 C14.7138323,9.52467106 13.5239438,10.7145596 12.0078182,10.9453636 L12.0078182,8.00854545 L14.9446364,8.00854545 L14.9446364,8.00854545 Z M4.05536364,10.9914545 C4.28309602,9.47234361 5.47367097,8.27865448 6.99218182,8.04695455 L6.99218182,10.9837727 L4.05536364,10.9837727 L4.05536364,10.9914545 Z M10.9530455,12.0078182 C10.7008537,13.7180144 9.23259918,14.9845317 7.50390909,14.9830468 C5.7755427,14.9845348 4.30755092,13.7182787 4.05536364,12.0084091 L10.9530455,12.0084091 L10.9530455,12.0078182 Z M10.9914545,8.00854545 L10.9914545,10.9837727 L8.00854545,10.9837727 L8.00854545,8.00854545 L10.9914545,8.00854545 Z M14.9446364,6.99218182 L8.04695455,6.99218182 C8.29914628,5.28198564 9.76740082,4.01546832 11.4960909,4.01695323 C13.2244573,4.01546517 14.6924491,5.28172127 14.9446364,6.99159091 L14.9446364,6.99218182 Z" id="Shape" fill="#FFFFFF"></path>
        </g>
    </g>
</svg>