<svg width="40" height="40" viewBox="0 0 40 40" fill="none" xmlns="http://www.w3.org/2000/svg"><rect fill="#6B39E0" width="40" height="40" rx="12"/><g transform="translate(4 4)"><circle cx="16" cy="16" r="14" fill="#fff"/><svg width="32" height="32" viewBox="0 0 32 32" xmlns="http://www.w3.org/2000/svg"><g clip-path="url(#clip0_261:1198)"><circle cx="16" cy="16" r="16" fill="#6B39E0"/><path d="M16.527 6.32a.637.637 0 00-1.106 0L8.614 18.186a.478.478 0 00.415.716h3.707c.223 0 .43-.117.546-.309l2.282-3.791a.478.478 0 01.82 0l2.535 4.212a.478.478 0 01-.41.724h-4.44a.637.637 0 00-.551.32l-1.864 3.226a.478.478 0 00.415.717h13.5c.49 0 .796-.53.553-.954L16.527 6.32z" fill="#fff"/></g><defs><clipPath id="clip0_261:1198"><rect width="32" height="32" rx="16" fill="#fff"/></clipPath></defs></svg></g></svg>