<svg width="40" height="40" viewBox="0 0 40 40" fill="none" xmlns="http://www.w3.org/2000/svg"><rect fill="#005ADD" width="40" height="40" rx="12"/><g transform="translate(4 4)"><circle cx="16" cy="16" r="14" fill="#fff"/><svg width="32" height="32" viewBox="0 0 40 40" xmlns="http://www.w3.org/2000/svg"><circle cx="20" cy="20" r="20" fill="#005ADD"/><path d="M12.206 20.7c-.428-.585-.402-1.333.063-1.754.671-.62 1.361-1.21 2.05-1.805.154-.135.331-.245.547-.402-.768-.714-1.515-1.173-2.396-1.382-.375-.088-.648.15-.753.485-.189.601-.388 1.211-.47 1.833-.252 1.902-.257 3.804.254 5.673.376 1.373.826 1.608 1.994.809a104.79 104.79 0 005.73-4.206c2.545-2.014 5.007-4.133 7.53-6.177.581-.454 1.203-.853 1.857-1.192 1.07-.581 1.58-.377 1.872.825.207.885.334 1.788.38 2.696.18 3.055.216 6.115-.109 9.164a8.023 8.023 0 01-.463 1.886c-.236.645-.602.826-1.209.516-1.314-.661-2.64-1.328-3.86-2.143-1.252-.838-2.38-1.857-3.573-2.785-.366-.285-.412-.516-.06-.872.855-.865.859-.854 1.8-.06 1.008.851 2.062 1.65 3.102 2.461.168.12.351.216.545.287.583.242 1.014.119 1.194-.48.268-.867.46-1.756.573-2.656.202-1.659.086-3.341-.343-4.957-.267-.991-.75-1.269-1.621-.763a25.075 25.075 0 00-3.134 2.15c-3.293 2.647-6.54 5.352-9.82 8.015-.922.748-1.904 1.415-3.064 1.762-.62.186-.974.059-1.144-.573-.217-.807-.413-1.636-.483-2.467a55.137 55.137 0 010-9.265c.086-.802.245-1.594.476-2.366.207-.75.59-.96 1.274-.619 1.302.649 2.604 1.321 3.81 2.128 1.239.825 2.373 1.819 3.535 2.755.53.428.515.647-.024 1.095-.847.707-.84.7-1.62-.04-.69-.656-.572-.894-1.503-.057-.78.7-1.579 1.378-2.373 2.063-.18.146-.376.276-.564.417z" fill="#fff"/></svg></g></svg>