
      <svg width="40" height="40" viewBox="0 0 40 40" fill="none" xmlns="http://www.w3.org/2000/svg">
        <rect fill="#D85111" x="0" y="0" width="40" height="40" rx="12"></rect>
        <g transform="translate(4,4)">
          <circle cx="16" cy="16" r="14" fill="#ffffff" />
          <svg width="32" height="32" viewBox="0 0 32 32" fill="none" xmlns="http://www.w3.org/2000/svg">
<path d="M16 32C24.8366 32 32 24.8366 32 16C32 7.16344 24.8366 0 16 0C7.16344 0 0 7.16344 0 16C0 24.8366 7.16344 32 16 32Z" fill="#D85111"/>
<path fill-rule="evenodd" clip-rule="evenodd" d="M12.1667 7C10.9701 7 10 8.00736 10 9.25V25H17.5833C20.5749 25 23 22.4816 23 19.375C23 17.4033 22.0231 15.6685 20.5445 14.6642C21.1982 13.8535 21.5917 12.8088 21.5917 11.6687C21.5917 9.09027 19.5788 7 17.0958 7H12.1667ZM13.714 7.675C14.0971 8.08084 14.3333 8.63677 14.3333 9.25V15.6625H17.0958C19.2198 15.6625 20.9417 13.8744 20.9417 11.6687C20.9417 9.46306 19.2198 7.675 17.0958 7.675H13.714Z" fill="white"/>
</svg>

        </g>
      </svg>