
      <svg width="40" height="40" viewBox="0 0 40 40" fill="none" xmlns="http://www.w3.org/2000/svg">
        <rect fill="#22ACE6" x="0" y="0" width="40" height="40" rx="12"></rect>
        <g transform="translate(4,4)">
          <circle cx="16" cy="16" r="14" fill="#ffffff" />
          <svg width="32" height="32" viewBox="0 0 32 32" fill="none" xmlns="http://www.w3.org/2000/svg">
  <circle cx="16" cy="16" r="16" fill="#22ACE6" />
  <path fill-rule="evenodd" clip-rule="evenodd"
    d="M19.0212 17.246C18.861 17.3919 18.7075 17.5317 18.5332 17.6911C18.6972 17.8444 18.8472 17.991 18.9899 18.1304C19.2796 18.4136 19.5391 18.6672 19.8241 18.8879C21.0419 19.8312 22.7908 19.8393 24.0573 18.9421C25.3212 18.0462 25.8685 16.3953 25.3903 14.9139C24.5599 12.3401 21.3833 11.5567 19.4218 13.4718C17.8762 14.9814 16.3535 16.5139 14.8309 18.0464C14.3958 18.4843 13.9607 18.9222 13.5251 19.3595C12.4631 20.4262 11.1952 20.9277 9.6834 20.8653C7.17599 20.7637 5.08309 18.5463 5.10612 15.9833C5.12915 13.4284 7.18683 11.2937 9.66308 11.1419C12.0787 10.993 13.4599 12.4982 14.8667 14.0313C14.958 14.1308 15.0494 14.2304 15.1412 14.3297C14.7715 14.7017 14.4087 15.0717 14.0489 15.4387C13.2327 16.2711 12.4322 17.0876 11.6029 17.874C10.7766 18.6588 9.57097 18.7117 8.81102 18.0407C9.80398 17.0551 10.7962 16.0708 11.8112 15.064C12.2017 14.6766 12.5956 14.286 12.9941 13.8906C12.8696 13.784 12.7526 13.6777 12.6389 13.5744C12.4013 13.3585 12.1781 13.1557 11.9307 12.9906C10.4406 11.9944 8.36129 12.3197 7.22205 13.7009C6.07197 15.0969 6.13293 17.1611 7.36428 18.4745C8.59835 19.7905 10.7603 20.086 12.0865 18.8879C13.216 17.8677 14.2558 16.7498 15.2516 15.6792C15.6675 15.232 16.0757 14.7932 16.4796 14.3731C16.1962 14.0652 15.9164 13.7391 15.6326 13.4083C14.9882 12.6574 14.323 11.8821 13.5482 11.2395C11.5663 9.59679 8.62815 9.62254 6.54609 11.1053C4.39359 12.6382 3.49005 15.3192 4.28522 17.8158C5.63713 22.0594 10.9446 23.4107 14.1469 20.3001C15.2524 19.2269 16.3383 18.1336 17.4242 17.0404C18.3595 16.0987 19.2949 15.157 20.2427 14.2281C21.26 13.2305 22.8084 13.2902 23.7634 14.2931C24.6845 15.2622 24.6845 16.7613 23.7634 17.7222C22.803 18.7252 21.2831 18.7645 20.24 17.79C20.04 17.6029 19.8647 17.3892 19.6864 17.1718C19.6038 17.0711 19.5206 16.9697 19.434 16.8697C19.2826 17.0079 19.1498 17.1289 19.0212 17.246ZM11.057 13.8364C9.97329 14.9261 8.87469 16.0307 7.78422 17.1259C7.26404 15.9752 7.51058 14.8001 8.44798 14.0573C9.29056 13.3905 10.4014 13.339 11.057 13.8364Z"
    fill="white" />
  <path
    d="M17.8531 20.3001C17.5228 19.9794 17.1942 19.657 16.8669 19.3332L17.6596 18.54C17.9313 18.8133 18.203 19.0865 18.4749 19.3595C19.5369 20.4262 20.8048 20.9277 22.3166 20.8653C24.824 20.7637 26.9169 18.5463 26.8939 15.9833C26.8709 13.4284 24.8132 11.2937 22.3369 11.1419C20.2341 11.0123 18.9152 12.1361 17.681 13.4405L16.9627 12.7219C17.4259 12.1988 17.9123 11.687 18.4518 11.2395C20.4337 9.59679 23.3719 9.62254 25.4539 11.1053C27.6064 12.6382 28.5099 15.3192 27.7148 17.8158C26.3629 22.0594 21.0554 23.4107 17.8531 20.3001Z"
    fill="white" />
</svg>
        </g>
      </svg>