
      <svg width="40" height="40" viewBox="0 0 40 40" fill="none" xmlns="http://www.w3.org/2000/svg">
        <rect fill="#37BEC1" x="0" y="0" width="40" height="40" rx="12"></rect>
        <g transform="translate(4,4)">
          <circle cx="16" cy="16" r="14" fill="#ffffff" />
          <svg width="32" height="32" viewBox="0 0 32 32" fill="none" xmlns="http://www.w3.org/2000/svg">
<circle cx="16" cy="16" r="16" fill="#37BEC1"/>
<path fill-rule="evenodd" clip-rule="evenodd" d="M18.2447 6.17477L7.19638 11.0938C6.17935 11.5466 5.72197 12.7382 6.17477 13.7552C6.62758 14.7722 7.81912 15.2296 8.83614 14.7768L19.8845 9.85774C20.9015 9.40493 21.3589 8.2134 20.9061 7.19638C20.4533 6.17935 19.2618 5.72197 18.2447 6.17477ZM15.1801 14.1585L7.81442 17.4379C6.7974 17.8907 6.34001 19.0822 6.79282 20.0993C7.24563 21.1163 8.43716 21.5737 9.45419 21.1209L16.8199 17.8415C17.8369 17.3887 18.2943 16.1971 17.8415 15.1801C17.3887 14.1631 16.1971 13.7057 15.1801 14.1585ZM12.1155 22.1422L23.1639 17.2231C24.1809 16.7703 25.3724 17.2277 25.8252 18.2448C26.278 19.2618 25.8206 20.4533 24.8036 20.9061L13.7553 25.8252C12.7382 26.278 11.5467 25.8206 11.0939 24.8036C10.6411 23.7865 11.0985 22.595 12.1155 22.1422Z" fill="white"/>
</svg>

        </g>
      </svg>