
      <svg width="40" height="40" viewBox="0 0 40 40" fill="none" xmlns="http://www.w3.org/2000/svg">
        <rect fill="#1E5DFF" x="0" y="0" width="40" height="40" rx="12"></rect>
        <g transform="translate(4,4)">
          <circle cx="16" cy="16" r="14" fill="#ffffff" />
          <svg xmlns="http://www.w3.org/2000/svg" width="32" height="32" viewBox="0 0 40 40" fill="none">
<rect width="40" height="40" rx="20" fill="#1e5dff"/>
<path fill-rule="evenodd" clip-rule="evenodd" d="M9 31L28.7208 14.5781C28.9624 14.3675 29.1581 14.1095 29.2958 13.8201C29.4336 13.5307 29.5104 13.2162 29.5215 12.8959C29.5326 12.5756 29.4778 12.2564 29.3605 11.9582C29.2431 11.6599 29.0658 11.389 28.8394 11.1621C28.6125 10.9353 28.3413 10.7575 28.0428 10.6399C27.7442 10.5223 27.4247 10.4673 27.104 10.4785C26.7834 10.4896 26.4684 10.5665 26.1787 10.7045C25.889 10.8426 25.6308 11.0387 25.4201 11.2807L9 31ZM18.5126 13.5074L10.2099 19.734L16.437 11.4319C16.5643 11.2622 16.7267 11.1218 16.913 11.0201C17.0993 10.9185 17.3053 10.8581 17.517 10.8429C17.7286 10.8277 17.941 10.8582 18.14 10.9322C18.3388 11.0061 18.5196 11.122 18.6698 11.2718C18.8204 11.4219 18.9369 11.6026 19.0114 11.8017C19.0859 12.0007 19.1168 12.2135 19.1018 12.4255C19.087 12.6376 19.0267 12.8439 18.925 13.0306C18.8234 13.2173 18.6827 13.3799 18.5126 13.5074ZM28.5658 23.5627L20.2631 29.7892L26.4901 21.4871C26.6176 21.3173 26.7798 21.1769 26.9662 21.0753C27.1525 20.9737 27.3584 20.9132 27.5701 20.8981C27.7817 20.8828 27.9941 20.9133 28.1931 20.9874C28.3919 21.0613 28.5727 21.1772 28.723 21.327C28.8736 21.4771 28.99 21.6578 29.0645 21.8569C29.1391 22.0559 29.1699 22.2687 29.155 22.4807C29.1401 22.6927 29.0798 22.899 28.9781 23.0858C28.8765 23.2725 28.7359 23.4351 28.5658 23.5627Z" fill="white"/>
</svg>
        </g>
      </svg>