
      <svg width="40" height="40" viewBox="0 0 40 40" fill="none" xmlns="http://www.w3.org/2000/svg">
        <rect fill="#131313" x="0" y="0" width="40" height="40" rx="12"></rect>
        <g transform="translate(4,4)">
          <circle cx="16" cy="16" r="14" fill="#ffffff" />
          <svg width="32" height="32" viewBox="0 0 32 32" fill="none" xmlns="http://www.w3.org/2000/svg">
<g clip-path="url(#clip0_601_421)">
<path d="M-4 16C-4 4.95431 4.95431 -4 16 -4V-4C27.0457 -4 36 4.95431 36 16V16C36 27.0457 27.0457 36 16 36V36C4.95431 36 -4 27.0457 -4 16V16Z" fill="#131313"/>
<path d="M7.5533 24.8141H5.19238L12.4316 16.4297C12.6629 16.162 12.6629 15.7604 12.4316 15.4997L5.24681 7.18579H7.51928L14.7449 15.5701C14.9286 15.8167 14.9626 16.1761 14.7653 16.4086C12.8738 18.5998 7.5533 24.8141 7.5533 24.8141Z" fill="white"/>
<path d="M26.7536 7.18579H24.4879L15.3436 17.8388C15.1055 18.0995 15.0987 18.5152 15.33 18.783L15.5749 19.093L20.4804 24.8141H22.8482L17.5412 18.642C17.3099 18.3743 17.3167 17.9586 17.5548 17.6979L26.7536 7.18579Z" fill="white"/>
<path d="M19.2285 18.015C19.1741 18.2334 19.2285 18.4729 19.3782 18.6491C20.6981 20.1921 24.658 24.8141 24.658 24.8141H26.808L20.0518 16.9933L19.4394 17.6697C19.3578 17.7613 19.2693 17.8952 19.2285 18.015Z" fill="white"/>
<path d="M9.32905 7.18579H11.5131C11.5131 7.18579 15.4048 11.843 16.8132 13.2873C17.0377 13.5128 16.9969 13.8087 16.7928 14.0483C16.0444 14.929 16.024 14.9431 16.024 14.9431L9.32905 7.18579Z" fill="white"/>
<path d="M18.0311 12.5969L22.6781 7.18579H20.4805L17.3507 10.8354C17.1126 11.0961 17.1058 11.5048 17.3371 11.7796C17.514 11.9839 18.0311 12.5969 18.0311 12.5969Z" fill="white"/>
<path d="M9.34955 24.8141L13.9965 19.403C13.9965 19.403 14.5136 20.016 14.6905 20.2203C14.9218 20.4951 14.915 20.9038 14.6769 21.1644L11.5472 24.8141H9.34955Z" fill="white"/>
</g>
<defs>
<clipPath id="clip0_601_421">
<rect width="32" height="32" rx="16" fill="white"/>
</clipPath>
</defs>
</svg>

        </g>
      </svg>