
      <svg width="40" height="40" viewBox="0 0 40 40" fill="none" xmlns="http://www.w3.org/2000/svg">
        <rect fill="#A4C6F5" x="0" y="0" width="40" height="40" rx="12"></rect>
        <g transform="translate(4,4)">
          <circle cx="16" cy="16" r="14" fill="#ffffff" />
          <svg width="32" height="32" viewBox="0 0 32 32" fill="none" xmlns="http://www.w3.org/2000/svg">
<g clip-path="url(#clip0_801_422)">
<rect width="32" height="32" rx="16" fill="#A4C6F5"/>
<path d="M16 32C24.8366 32 32 24.8366 32 16C32 7.16344 24.8366 0 16 0C7.16344 0 0 7.16344 0 16C0 24.8366 7.16344 32 16 32Z" fill="#A4C6F5"/>
<path d="M15.5 5.25C15.5 5.94036 14.9404 6.5 14.25 6.5C13.5596 6.5 13 5.94036 13 5.25C13 4.55964 13.5596 4 14.25 4C14.9404 4 15.5 4.55964 15.5 5.25Z" fill="white"/>
<path d="M19 14.55C20.6569 14.55 22 13.2069 22 11.55C22 9.89314 20.6569 8.55 19 8.55C17.3431 8.55 16 9.89314 16 11.55C16 13.2069 17.3431 14.55 19 14.55Z" fill="white"/>
<path d="M16.2171 18.4022C16.1723 18.2596 16.1169 18.1175 16.0501 17.9773C15.4247 16.663 13.947 15.9332 12.5241 16.2394C10.6448 16.6439 9.57623 18.5663 10.1594 20.3436C10.4225 21.1453 10.9736 21.7716 11.6607 22.1453C12.4319 22.5651 12.9185 23.3452 12.9717 24.2218C12.9993 24.6758 13.1054 25.1354 13.2984 25.5828C14.075 27.3822 16.0907 28.3628 17.9872 27.8689C20.2513 27.2793 21.5169 24.9162 20.7989 22.7274C20.3577 21.383 19.2751 20.4295 18.0017 20.0945C17.1573 19.8721 16.4779 19.2356 16.2171 18.4022Z" fill="white"/>
</g>
<defs>
<clipPath id="clip0_801_422">
<rect width="32" height="32" rx="16" fill="white"/>
</clipPath>
</defs>
</svg>

        </g>
      </svg>