
      <svg width="40" height="40" viewBox="0 0 40 40" fill="none" xmlns="http://www.w3.org/2000/svg">
        <rect fill="#04D6B4" x="0" y="0" width="40" height="40" rx="12"></rect>
        <g transform="translate(4,4)">
          <circle cx="16" cy="16" r="14" fill="#ffffff" />
          <svg width="32" height="32" viewBox="0 0 32 32" fill="none" xmlns="http://www.w3.org/2000/svg">
<circle cx="16" cy="16" r="16" fill="#04D6B4"/>
<path d="M10.795 28C11.0019 28 11.2034 27.9775 11.3974 27.9349C11.7235 27.8738 12.0441 27.7532 12.3437 27.5693L13.5901 26.8045V12.9025L8 9.45938V25.205C8 26.7486 9.25138 28 10.795 28Z" fill="white"/>
<path d="M8 8.36515V6.80427C8 5.48552 8.9133 4.38008 10.1419 4.08595C10.852 3.90667 11.631 4.00344 12.3037 4.41788L24.9185 12.1887L19.5608 15.4887L14.4878 12.3636L14.4889 12.3618L8 8.36515Z" fill="white"/>
<path d="M20.4498 16.0363L20.0032 16.3104L18.2413 17.3956L18.2395 17.3927L14.5218 19.6741V26.2328L27.2329 18.4326C28.5486 17.6252 28.9607 15.9042 28.1533 14.5885C28.0197 14.3708 27.8612 14.178 27.6836 14.0112C27.5148 13.8296 27.319 13.6674 27.0976 13.5311L25.8067 12.7359L20.449 16.0358L20.4498 16.0363Z" fill="white"/>
</svg>

        </g>
      </svg>