<svg width="40" height="40" viewBox="0 0 40 40" fill="none" xmlns="http://www.w3.org/2000/svg"><rect fill="#FF93A2" width="40" height="40" rx="12"/><g transform="translate(4 4)"><circle cx="16" cy="16" r="14" fill="#fff"/><svg width="32" height="32" viewBox="0 0 40 40" xmlns="http://www.w3.org/2000/svg"><circle cx="20" cy="20" r="20" fill="#FF93A2"/><path d="M20 18.285c3.432 0 6.214-.384 6.214-.857s-2.782-.857-6.214-.857c-3.432 0-6.214.384-6.214.857s2.782.857 6.214.857z" fill="#fff"/><path d="M12.071 21.475c0-1.205.357-2.336.94-3.345.006-.011.024-.007.025.005v.004a.237.237 0 00-.003.042c0 .664 3.119 1.201 6.967 1.201 3.848 0 6.968-.537 6.968-1.2a.237.237 0 00-.004-.047c.001-.012.019-.016.025-.005.409.708.706 1.476.848 2.287.038.218-.226.294-.328.098l-.115-.217a.209.209 0 00-.353-.026l-1.59 2.195a.209.209 0 01-.26.065l-3.295-1.599a.209.209 0 00-.227.03l-3.353 2.89a.209.209 0 01-.265.007l-3.123-2.432a.209.209 0 00-.248-.006l-2.222 1.547a.193.193 0 01-.3-.133 10.606 10.606 0 01-.087-1.361z" fill="#fff"/><path d="M12.543 24.067a.206.206 0 00-.078.225c.907 3.028 3.394 5.181 7.535 5.181 4.288 0 7.781-3.434 7.924-7.725a.207.207 0 00-.055-.147l-.457-.494a.209.209 0 00-.335.04L25.6 23.761a.209.209 0 01-.293.073l-3.32-2.094a.209.209 0 00-.265.034L18.34 25.42a.209.209 0 01-.294.012l-3.12-2.872a.209.209 0 00-.262-.016l-2.12 1.524z" fill="#fff"/><path fill-rule="evenodd" clip-rule="evenodd" d="M16.423 8.863a.2.2 0 01.122-.258c.49-.171 1.865-.605 3.24-.605 1.386 0 2.772.385 3.252.533.102.03.16.135.137.238l-.389 1.745a.212.212 0 00.11.233c.228.12.453.25.673.387 1.146.715 2.284 1.706 3.29 2.848 1.98 2.244 3.642 5.294 3.642 8.26C30.5 28.139 25.752 32 20 32c-3.276 0-5.934-.924-7.778-2.698-1.849-1.78-2.722-4.261-2.722-7.057 0-2.902 1.368-5.94 3.26-8.23 1.135-1.373 2.55-2.584 4.099-3.325a.212.212 0 00.11-.26l-.546-1.567zm1.212 3.072a.219.219 0 00-.262-.065c-3.484 1.687-6.587 6.326-6.587 10.375 0 5.055 3.136 8.47 9.214 8.47 5.177 0 9.214-3.415 9.214-8.47 0-3.98-3.584-8.53-6.783-10.286a.218.218 0 00-.266.052c-.217.24-.487.428-.788.549-.198.08-.33-.213-.23-.401a1.44 1.44 0 00.141-.41l.394-2.119a.201.201 0 00-.134-.23c-.331-.107-1.097-.329-1.762-.329-.657 0-1.413.217-1.75.326a.201.201 0 00-.132.243l.57 2.206c.019.075.044.148.074.217.088.2-.074.503-.267.4a2.147 2.147 0 01-.646-.528z" fill="#fff"/></svg></g></svg>